# File created by Blade
# Date/Time:  Tue Sep 30 19:15:05 2014
# Frame Rate: 120.000 fps
#------------------------------------------------------
:FULLY-SPECIFIED
:DEGREES
1376
root -2.446195 32.898333 -3.668293 2.501475 -3.238055 -12.433614
Spine -1.627835 6.781427 8.790589
Head -2.721031 -11.067351 13.155450
LeftShoulder 21.092940 11.065594 21.735157
LeftArm 11.011143 -27.764197 -74.535892
LeftForeArm -128.661691 14.519483 -11.341930
LeftHand -0.000049 37.405778 26.992852
LeftHandThumb1 30.357831 13.997178 22.438692
RightShoulder -9.743112 -20.987606 -16.729361
RightArm 10.758054 -16.722341 75.432231
RightForeArm 23.605961 -11.749642 24.984173
RightHand -0.000045 -7.193123 10.747657
RightHandThumb1 30.482666 -12.916435 -20.793814
LeftUpLeg -11.555023 5.175950 6.266547
LeftLeg 23.341101 0.000000 0.000000
LeftFoot -19.754977 10.585181 -4.033417
LeftToeBase 0.395200 -0.000000 0.000000
RightUpLeg -93.902885 0.597945 3.544431
RightLeg 109.842903 -0.000000 -0.000000
RightFoot 30.667853 -19.450940 -2.337180
RightToeBase 16.280199 0.000000 0.000000
1377
root -2.485895 32.937533 -3.636593 2.354667 -2.582155 -13.134947
Spine -1.626394 6.254277 9.920353
Head -2.462169 -11.174809 12.713772
LeftShoulder 21.097311 11.071257 21.603478
LeftArm 11.556049 -27.759923 -74.725361
LeftForeArm -128.399949 14.308269 -11.082746
LeftHand -0.000044 37.251141 27.090756
LeftHandThumb1 30.357831 13.997178 22.438692
RightShoulder -9.492422 -21.160465 -16.962560
RightArm 10.983972 -16.803546 75.223348
RightForeArm 23.433786 -11.591881 24.872094
RightHand 0.000059 -7.096114 10.867628
RightHandThumb1 30.482666 -12.916435 -20.793814
LeftUpLeg -11.580306 4.817590 7.084533
LeftLeg 23.596100 -0.000000 0.000000
LeftFoot -19.732584 10.332825 -4.117815
LeftToeBase 0.395400 -0.000000 -0.000000
RightUpLeg -93.443689 0.413152 1.426559
RightLeg 110.052200 -0.000000 -0.000000
RightFoot 30.540537 -19.381816 -2.938626
RightToeBase 16.297501 0.000000 0.000000
1378
root -2.524595 32.976332 -3.608393 2.232094 -1.908399 -13.835242
Spine -1.676768 5.755870 11.057671
Head -2.231746 -11.269605 12.243882
LeftShoulder 21.106146 11.046873 21.460567
LeftArm 12.078248 -27.783489 -74.893434
LeftForeArm -128.152364 14.180941 -10.893639
LeftHand 0.000051 37.197352 27.060113
LeftHandThumb1 30.357831 13.997178 22.438692
RightShoulder -9.189011 -21.383817 -17.223756
RightArm 11.184468 -16.874995 75.015442
RightForeArm 23.301294 -11.460445 24.765177
RightHand -0.000010 -7.133595 11.028004
RightHandThumb1 30.482666 -12.916435 -20.793814
LeftUpLeg -11.676811 4.544059 7.891323
LeftLeg 23.888599 -0.000000 -0.000000
LeftFoot -19.653479 10.049409 -4.322790
LeftToeBase -0.089600 -0.000000 -0.000000
RightUpLeg -92.982774 0.291410 -0.781823
RightLeg 110.251198 -0.000000 0.000000
RightFoot 30.448205 -19.240591 -3.361586
RightToeBase 16.044701 0.000000 0.000000
1379
root -2.564395 33.016535 -3.582093 2.121315 -1.212557 -14.548897
Spine -1.781747 5.249337 12.216156
Head -1.952427 -11.434803 11.719612
LeftShoulder 21.088482 11.000509 21.286400
LeftArm 12.565836 -27.777018 -75.010740
LeftForeArm -127.896941 13.967921 -10.641098
LeftHand 0.000036 37.101333 27.182677
LeftHandThumb1 30.357831 13.997178 22.438692
RightShoulder -8.936603 -21.585141 -17.491565
RightArm 11.312194 -17.028628 74.798837
RightForeArm 23.161219 -11.358670 24.720376
RightHand -0.000012 -7.094006 11.357391
RightHandThumb1 30.482666 -12.916435 -20.793814
LeftUpLeg -11.808074 4.183911 8.712038
LeftLeg 24.169901 -0.000000 -0.000000
LeftFoot -19.618167 9.787517 -4.333198
LeftToeBase -0.123400 -0.000000 0.000000
RightUpLeg -92.491597 0.217694 -3.013215
RightLeg 110.497299 -0.000000 0.000000
RightFoot 30.086303 -19.376197 -3.608115
RightToeBase 16.320200 0.000000 0.000000
1380
root -2.607295 33.058135 -3.548893 1.978305 -0.534055 -15.313419
Spine -1.896853 4.751746 13.422291
Head -1.635132 -11.529246 11.263159
LeftShoulder 21.137928 10.968052 21.192846
LeftArm 13.125084 -27.777174 -75.199420
LeftForeArm -127.625764 13.799787 -10.418252
LeftHand 0.000050 36.907451 27.304891
LeftHandThumb1 30.357831 13.997178 22.438692
RightShoulder -8.794783 -21.807465 -17.749269
RightArm 11.675393 -17.247134 74.516236
RightForeArm 22.977172 -11.208981 24.629442
RightHand 0.000013 -7.002761 11.585206
RightHandThumb1 30.482666 -12.916435 -20.793814
LeftUpLeg -11.912556 3.970739 9.593090
LeftLeg 24.449600 -0.000000 -0.000000
LeftFoot -19.532842 9.306331 -4.453683
LeftToeBase -0.260900 -0.000000 0.000000
RightUpLeg -91.935548 0.184257 -5.195195
RightLeg 110.761597 -0.000000 -0.000000
RightFoot 30.014243 -19.175275 -4.205332
RightToeBase 15.916000 -0.000000 -0.000000
1381
root -2.639595 33.097433 -3.516593 1.805987 0.217146 -16.035526
Spine -2.014511 4.156210 14.628560
Head -1.317779 -11.579987 10.729127
LeftShoulder 21.166381 10.955815 21.037461
LeftArm 13.664742 -27.797315 -75.311810
LeftForeArm -127.370163 13.722210 -10.268821
LeftHand -0.000036 36.860217 27.473474
LeftHandThumb1 30.357831 13.997178 22.438692
RightShoulder -8.626759 -22.009878 -18.023843
RightArm 11.833415 -17.456143 74.245296
RightForeArm 22.816966 -11.161345 24.707601
RightHand -0.000021 -7.074846 11.807880
RightHandThumb1 30.482666 -12.916435 -20.793814
LeftUpLeg -12.050233 3.817901 10.412867
LeftLeg 24.771500 0.000000 0.000000
LeftFoot -19.458416 8.826753 -4.522343
LeftToeBase -0.377300 -0.000000 0.000000
RightUpLeg -91.328295 0.076858 -7.419687
RightLeg 111.035004 -0.000000 -0.000000
RightFoot 29.821570 -19.157413 -4.551023
RightToeBase 16.161400 0.000000 0.000000
1382
root -2.673995 33.136835 -3.480193 1.665938 0.932752 -16.750425
Spine -2.222791 3.620429 15.817230
Head -0.982402 -11.649204 10.206528
LeftShoulder 21.198508 10.927046 20.923289
LeftArm 14.252978 -27.768515 -75.417605
LeftForeArm -127.110452 13.708667 -10.165031
LeftHand 0.000014 36.710420 27.686725
LeftHandThumb1 30.357831 13.997178 22.438692
RightShoulder -8.412243 -22.227341 -18.298012
RightArm 12.118033 -17.652935 73.929031
RightForeArm 22.677347 -11.065529 24.671079
RightHand 0.000030 -7.055706 12.110544
RightHandThumb1 30.482666 -12.916435 -20.793814
LeftUpLeg -12.203498 3.649725 11.229463
LeftLeg 25.048800 0.000000 0.000000
LeftFoot -19.335198 8.363360 -4.785819
LeftToeBase -0.812200 -0.000000 0.000000
RightUpLeg -90.725504 0.037926 -9.643861
RightLeg 111.357803 -0.000000 -0.000000
RightFoot 29.693007 -19.029402 -5.022056
RightToeBase 15.961100 -0.000000 -0.000000
1383
root -2.710295 33.176932 -3.443593 1.536487 1.576064 -17.440027
Spine -2.458119 3.132322 16.941057
Head -0.608624 -11.654033 9.718165
LeftShoulder 21.386713 10.946581 20.823077
LeftArm 14.815595 -27.923990 -75.426768
LeftForeArm -126.846286 13.657953 -10.034163
LeftHand 0.000018 36.724118 28.001158
LeftHandThumb1 30.357831 13.997178 22.438692
RightShoulder -8.271762 -22.390488 -18.476284
RightArm 12.254551 -17.927172 73.560499
RightForeArm 22.504995 -11.009012 24.745578
RightHand -0.000041 -6.970634 12.344827
RightHandThumb1 30.482666 -12.916435 -20.793814
LeftUpLeg -12.331757 3.566061 12.008210
LeftLeg 25.261499 0.000000 0.000000
LeftFoot -19.306679 7.858541 -5.046302
LeftToeBase -0.458500 -0.000000 0.000000
RightUpLeg -90.129171 0.117599 -11.891796
RightLeg 111.685303 -0.000000 0.000000
RightFoot 29.576847 -18.958481 -5.511613
RightToeBase 15.831200 -0.000000 0.000000
1384
root -2.746294 33.216734 -3.400893 1.349705 2.182590 -18.133766
Spine -2.647342 2.654022 18.080622
Head -0.253615 -11.672134 9.217014
LeftShoulder 21.431767 10.939932 20.723728
LeftArm 15.367165 -27.908294 -75.447801
LeftForeArm -126.585788 13.575484 -9.883585
LeftHand -0.000022 36.756705 28.428611
LeftHandThumb1 30.357831 13.997178 22.438692
RightShoulder -7.921068 -22.663247 -18.675258
RightArm 12.533306 -17.876110 73.204271
RightForeArm 22.258506 -10.870660 24.739610
RightHand -0.000024 -6.887903 12.636023
RightHandThumb1 30.482666 -12.916435 -20.793814
LeftUpLeg -12.389816 3.577448 12.820200
LeftLeg 25.457500 -0.000000 -0.000000
LeftFoot -19.140659 7.293780 -5.020099
LeftToeBase -1.178000 -0.000000 -0.000000
RightUpLeg -89.497218 0.340432 -14.189070
RightLeg 112.056602 -0.000000 -0.000000
RightFoot 29.541266 -18.866191 -5.756341
RightToeBase 15.728100 -0.000000 -0.000000
1385
root -2.776194 33.254534 -3.359193 1.202617 2.819935 -18.769016
Spine -2.921736 2.169202 19.165520
Head 0.141198 -11.746481 8.658454
LeftShoulder 21.563305 10.905859 20.605990
LeftArm 15.838768 -27.946384 -75.385527
LeftForeArm -126.318077 13.461471 -9.710147
LeftHand -0.000004 36.667890 28.642600
LeftHandThumb1 30.357831 13.997178 22.438692
RightShoulder -7.564574 -22.869093 -18.847585
RightArm 12.677733 -17.922956 72.823638
RightForeArm 22.119311 -10.830149 24.810645
RightHand 0.000025 -7.183514 12.927895
RightHandThumb1 30.482666 -12.916435 -20.793814
LeftUpLeg -12.495491 3.456714 13.541738
LeftLeg 25.609600 0.000000 0.000000
LeftFoot -19.115485 6.770995 -5.217821
LeftToeBase -0.711100 -0.000000 -0.000000
RightUpLeg -88.860813 0.514280 -16.498030
RightLeg 112.413803 -0.000000 0.000000
RightFoot 29.597112 -18.539280 -6.289458
RightToeBase 15.939700 -0.000000 -0.000000
1386
root -2.803394 33.290232 -3.316593 1.046797 3.414111 -19.371388
Spine -3.193385 1.720609 20.186223
Head 0.521961 -11.805890 8.194282
LeftShoulder 21.748713 10.893569 20.544668
LeftArm 16.323973 -28.070811 -75.355826
LeftForeArm -126.009157 13.341212 -9.520241
LeftHand -0.000031 36.537886 28.925005
LeftHandThumb1 30.357831 13.997178 22.438692
RightShoulder -7.266524 -23.098824 -18.969216
RightArm 12.859707 -17.994279 72.409880
RightForeArm 21.953947 -10.786570 24.904934
RightHand -0.000032 -7.358468 13.115700
RightHandThumb1 30.482666 -12.916435 -20.793814
LeftUpLeg -12.581761 3.453976 14.230139
LeftLeg 25.754000 -0.000000 0.000000
LeftFoot -19.023682 6.195870 -5.356060
LeftToeBase -0.739400 -0.000000 -0.000000
RightUpLeg -88.221339 0.741249 -18.770375
RightLeg 112.778000 -0.000000 -0.000000
RightFoot 29.672479 -18.300366 -6.806360
RightToeBase 15.736900 0.000000 0.000000
1387
root -2.831294 33.325434 -3.278093 0.900350 4.019445 -19.983791
Spine -3.485678 1.254727 21.214330
Head 0.891569 -11.829610 7.718601
LeftShoulder 21.704265 10.877003 20.457539
LeftArm 16.799992 -27.985973 -75.314431
LeftForeArm -125.721428 13.142222 -9.286266
LeftHand -0.000002 36.445037 29.227268
LeftHandThumb1 30.357831 13.997178 22.438692
RightShoulder -7.088358 -23.298825 -19.074474
RightArm 13.035533 -18.173042 71.934053
RightForeArm 21.817393 -10.668437 24.817664
RightHand 0.000001 -7.346985 13.497107
RightHandThumb1 30.482666 -12.916435 -20.793814
LeftUpLeg -12.704518 3.416285 14.929611
LeftLeg 25.903200 0.000000 0.000000
LeftFoot -18.917153 5.644872 -5.530144
LeftToeBase -0.900800 -0.000000 -0.000000
RightUpLeg -87.585424 0.976524 -20.961147
RightLeg 113.111000 -0.000000 -0.000000
RightFoot 29.792439 -17.978749 -7.390193
RightToeBase 15.692500 -0.000000 0.000000
1388
root -2.852294 33.355432 -3.240793 0.774020 4.636378 -20.521798
Spine -3.815665 0.769232 22.148133
Head 1.242776 -11.856151 7.284152
LeftShoulder 21.872608 10.861820 20.401345
LeftArm 17.184560 -28.095239 -75.252686
LeftForeArm -125.470370 12.914544 -9.048089
LeftHand 0.000050 36.428767 29.553424
LeftHandThumb1 30.357831 13.997178 22.438692
RightShoulder -6.886676 -23.460925 -19.147950
RightArm 13.040306 -18.368151 71.470366
RightForeArm 21.681174 -10.650488 24.932316
RightHand 0.000014 -7.260542 13.799270
RightHandThumb1 30.482666 -12.916435 -20.793814
LeftUpLeg -12.849080 3.283691 15.528273
LeftLeg 26.040400 -0.000000 -0.000000
LeftFoot -18.775202 5.261609 -5.555006
LeftToeBase -1.182600 -0.000000 0.000000
RightUpLeg -86.941796 1.186758 -23.186237
RightLeg 113.434998 -0.000000 0.000000
RightFoot 29.855606 -17.529140 -8.044735
RightToeBase 15.944500 -0.000000 -0.000000
